<svg xmlns="http://www.w3.org/2000/svg" viewBox="0 0 1200 620" preserveAspectRatio="xMidYMid slice">
  <defs><linearGradient id="sky" x1="0" x2="0" y1="0" y2="1"><stop offset="0" stop-color="#86cfff"/><stop offset="0.58" stop-color="#d9f4ff"/><stop offset="1" stop-color="#58a9c6"/></linearGradient></defs>
  <rect width="1200" height="620" fill="url(#sky)"/>
  <circle cx="1015" cy="88" r="50" fill="#ffd06c"/>
  <path d="M0 390 C200 330 340 370 520 320 C710 265 920 330 1200 275 L1200 620 L0 620 Z" fill="#547d83"/>
  <path d="M0 480 C180 450 330 495 515 460 C760 415 945 470 1200 430 L1200 620 L0 620 Z" fill="#3e91b5"/>
  <path d="M145 430 C315 300 600 300 770 430" fill="none" stroke="#e6edf2" stroke-width="16"/>
  <path d="M145 430 H770" stroke="#d6e0e8" stroke-width="10"/>
  <rect x="235" y="348" width="16" height="92" fill="#e6edf2"/>
  <rect x="665" y="348" width="16" height="92" fill="#e6edf2"/>
  <rect x="835" y="330" width="110" height="170" rx="8" fill="#49677b"/>
  <rect x="985" y="365" width="125" height="135" rx="8" fill="#5d7786"/>
  <path d="M0 505 H1200 V620 H0 Z" fill="#3580a5"/>
</svg>
