<svg xmlns="http://www.w3.org/2000/svg" viewBox="0 0 1200 620" preserveAspectRatio="xMidYMid slice">
  <defs>
    <linearGradient id="sky" x1="0" x2="0" y1="0" y2="1">
      <stop offset="0" stop-color="#9fd7ff"/>
      <stop offset="0.62" stop-color="#dff4de"/>
      <stop offset="1" stop-color="#7fc76b"/>
    </linearGradient>
  </defs>
  <rect width="1200" height="620" fill="url(#sky)"/>
  <circle cx="980" cy="94" r="52" fill="#ffd36b"/>
  <path d="M0 430 C130 365 240 390 360 340 C520 275 640 350 790 305 C950 260 1050 315 1200 265 L1200 620 L0 620 Z" fill="#6fb05e"/>
  <path d="M0 470 C190 410 360 445 520 400 C720 344 880 410 1200 355 L1200 620 L0 620 Z" fill="#4f9f58"/>
  <rect x="120" y="340" width="130" height="160" rx="8" fill="#627984"/>
  <rect x="290" y="300" width="105" height="205" rx="8" fill="#536c7a"/>
  <rect x="445" y="365" width="170" height="135" rx="8" fill="#6f858c"/>
  <rect x="680" y="315" width="125" height="185" rx="8" fill="#49616f"/>
  <rect x="855" y="350" width="170" height="150" rx="8" fill="#667a83"/>
  <path d="M0 500 H1200 V620 H0 Z" fill="#3f8e50"/>
</svg>
