<svg xmlns="http://www.w3.org/2000/svg" viewBox="0 0 1200 620" preserveAspectRatio="xMidYMid slice">
  <defs><linearGradient id="sky" x1="0" x2="0" y1="0" y2="1"><stop offset="0" stop-color="#97d4ff"/><stop offset="0.58" stop-color="#d6f2ec"/><stop offset="1" stop-color="#6dbb75"/></linearGradient></defs>
  <rect width="1200" height="620" fill="url(#sky)"/>
  <circle cx="970" cy="92" r="50" fill="#ffd36b"/>
  <path d="M0 470 C150 420 280 440 420 390 C560 340 720 360 860 330 C1010 300 1110 320 1200 285 L1200 620 L0 620 Z" fill="#6dae72"/>
  <rect x="105" y="365" width="120" height="145" rx="8" fill="#637b89"/>
  <rect x="275" y="320" width="115" height="190" rx="8" fill="#4e697c"/>
  <path d="M592 170 L625 505 H560 Z" fill="#354d68"/>
  <circle cx="592" cy="185" r="45" fill="#5b86a4"/>
  <rect x="720" y="335" width="145" height="175" rx="8" fill="#5d7484"/>
  <rect x="920" y="380" width="150" height="130" rx="8" fill="#6f858d"/>
  <path d="M0 505 H1200 V620 H0 Z" fill="#408c56"/>
</svg>
