<svg xmlns="http://www.w3.org/2000/svg" viewBox="0 0 1200 620" preserveAspectRatio="xMidYMid slice">
  <defs><linearGradient id="sky" x1="0" x2="0" y1="0" y2="1"><stop offset="0" stop-color="#95d2ff"/><stop offset="0.62" stop-color="#e2eff7"/><stop offset="1" stop-color="#69a8c8"/></linearGradient></defs>
  <rect width="1200" height="620" fill="url(#sky)"/>
  <circle cx="995" cy="86" r="50" fill="#ffd36b"/>
  <path d="M0 410 C160 360 320 385 510 335 C720 280 935 340 1200 300 L1200 620 L0 620 Z" fill="#6f9d72"/>
  <path d="M0 495 C220 455 420 500 650 455 C870 415 1030 450 1200 420 L1200 620 L0 620 Z" fill="#5c9fc2"/>
  <rect x="110" y="335" width="95" height="165" rx="8" fill="#5d7484"/>
  <rect x="250" y="285" width="105" height="215" rx="8" fill="#445f72"/>
  <rect x="405" y="340" width="130" height="160" rx="8" fill="#657b86"/>
  <path d="M650 210 L675 500 H625 Z" fill="#344c68"/>
  <circle cx="650" cy="215" r="36" fill="#5d86a5"/>
  <rect x="780" y="275" width="110" height="225" rx="8" fill="#3e586f"/>
  <rect x="935" y="330" width="135" height="170" rx="8" fill="#637987"/>
  <path d="M0 505 H1200 V620 H0 Z" fill="#478fae"/>
</svg>
